<?xml version="1.0" standalone="no"?>
<!DOCTYPE svg PUBLIC "-//W3C//DTD SVG 1.1//EN" "http://www.w3.org/Graphics/SVG/1.1/DTD/svg11.dtd">
<svg xmlns="http://www.w3.org/2000/svg" width="240" height="200" viewBox="0 0 240 200" fill="none">
<path d="M128.726 0.116302C122.578 1.30771 119.099 3.02333 112.046 8.31319C106.327 12.6499 103.134 14.7944 96.367 18.7022C89.0756 22.9436 84.9295 27.6616 84.8819 31.7601C84.8819 34.1905 86.6928 37.5265 88.7897 38.8608C90.3623 39.8616 90.5053 40.0999 90.0764 41.196C89.7904 41.9108 89.6475 44.246 89.6951 46.4382L89.7904 50.4413L86.0733 52.4429C76.3037 57.7804 72.2529 64.6905 72.3006 76.0804C72.3006 82.5616 73.1108 86.1358 75.8272 91.6163C79.6873 99.5749 88.6467 106.866 91.0295 104.007C91.3154 103.673 91.6967 102.339 91.8397 101.052C92.3639 97.2874 94.1272 94.0468 97.3678 91.0921C98.9881 89.6624 100.513 88.471 100.799 88.471C101.085 88.471 101.847 89.2335 102.515 90.139C103.563 91.5686 107.709 94.714 109.33 95.2858C110.283 95.6194 109.282 96.3343 104.421 98.7647C97.3201 102.291 91.6014 108.725 91.3631 113.395C91.3154 114.825 91.4108 114.92 93.0311 114.92H94.7943L93.4123 116.683C92.6498 117.637 91.0295 120.258 89.8381 122.545L87.5983 126.691L86.2639 124.547C85.549 123.403 84.3576 121.973 83.6904 121.401L82.3561 120.401H43.3256C1.34045 120.401 1.81701 120.353 0.530291 122.831C0.196697 123.403 -0.041584 125.023 0.00607222 126.405C0.101385 130.266 14.2076 194.03 15.5897 196.698C16.9717 199.462 17.3053 199.51 42.7537 199.605C55.5733 199.701 81.4506 199.701 100.227 199.605L134.349 199.51L135.779 198.319C137.113 197.175 137.494 197.127 143.213 197.127C148.646 197.127 149.551 197.27 152.22 198.366C157.748 200.701 166.088 200.463 169.948 197.794L171.664 196.651L205.595 196.555L239.526 196.412L239.383 194.744C238.907 190.265 234.713 176.254 231.139 167.199C224.467 150.472 216.508 137.938 204.785 125.786C201.354 122.212 200.21 120.734 200.544 120.305C202.259 118.113 201.449 111.203 198.828 105.866C197.78 103.769 197.017 102.005 197.112 101.91C197.208 101.815 199.447 102.005 202.116 102.291C206.358 102.816 207.072 102.768 207.692 102.148C209.646 100.194 202.545 91.6163 196.493 88.5663L193.586 87.1366L195.015 86.5647C197.351 85.564 198.78 84.2296 198.78 82.9429C198.78 81.9421 198.256 81.5132 195.73 80.3218C191.489 78.3202 187.2 77.7007 182.863 78.3679C180.957 78.6538 179.051 79.0351 178.574 79.2257C177.764 79.5593 177.716 79.321 177.907 76.4616C178.097 73.4593 178.193 73.221 180.576 70.5999C182.339 68.6936 183.959 66.0726 185.913 62.0694C190.297 52.9194 191.394 46.3429 189.249 41.3866C187.962 38.4319 184.722 35.2866 182.482 34.8577C180.909 34.5718 180.814 34.3811 179.527 30.4257C176.382 20.6085 172.045 15.271 164.372 11.5538C159.464 9.21864 154.794 8.02724 148.837 7.59834L144.881 7.31239L143.976 5.50146C142.927 3.45224 140.735 1.64131 138.257 0.831146C136.398 0.211624 130.537 -0.217285 128.726 0.116302ZM137.065 4.07178C138.114 4.54834 139.496 5.54912 140.163 6.26396C142.737 9.07568 141.069 15.1757 136.351 19.8936C135.112 21.1327 134.158 22.2765 134.301 22.4194C134.778 22.8483 138.209 20.7991 139.972 19.0358C141.497 17.5585 143.118 14.6038 144.166 11.5538C144.452 10.7437 144.833 10.6483 149.122 10.9343C154.698 11.3155 158.32 12.1733 162.895 14.3655C167.041 16.2718 169.901 18.8452 172.617 22.9913C174.476 25.8983 177.335 33.1421 177.335 35.0483C177.335 35.5249 176.477 36.5733 175.429 37.4312C173.237 39.1944 171.473 42.2444 171.712 44.0077C171.855 45.1991 171.95 45.1038 173.761 42.721C176.096 39.5757 178.383 37.9554 180.528 37.9554C186.056 37.9554 188.582 44.2937 186.437 52.6335C184.102 61.6405 179.098 69.4085 175.143 70.171C172.283 70.6952 171.044 69.9804 169.948 67.121C169.424 65.7866 168.852 64.6429 168.662 64.6429C168.471 64.6429 168.233 65.6436 168.042 66.8827C167.089 74.5077 166.231 78.3679 164.944 81.1319C161.942 87.4226 155.651 92.2835 150.552 92.2835C148.36 92.2835 148.265 92.2358 148.265 90.9015C148.265 85.7069 141.497 77.9866 128.44 68.2171C122.864 64.0233 122.006 62.9749 117.765 55.4452C116.573 53.396 114.953 50.8702 114.095 49.8694C112.713 48.2491 108.996 45.4374 107.662 45.0085C107.137 44.8179 108.138 41.2913 108.71 41.2913C108.853 41.2913 109.472 42.0538 110.14 42.9116C112.427 46.0569 112.475 44.6749 110.33 34.2382C109.806 31.6171 107.757 34.4288 107.757 37.8601C107.757 39.3851 106.947 39.528 102.086 38.9561C92.9834 37.8124 88.2178 35.2866 88.2178 31.5694C88.2178 27.8046 89.8381 26.2319 99.7029 20.4179C103.23 18.321 108.805 14.6991 112.046 12.364C120.147 6.5499 121.815 5.54912 125.39 4.26241C129.345 2.88037 134.301 2.78505 137.065 4.07178ZM96.51 41.8155C98.0826 42.1491 99.1311 42.578 99.0358 42.9116C98.8928 43.1976 98.5592 43.3882 98.2256 43.2929C97.3678 43.1022 96.7959 44.103 96.7959 45.9616C96.7959 47.296 96.5576 47.6296 95.0803 48.2491C94.1272 48.6304 93.2694 48.8687 93.174 48.7733C92.7451 48.3444 92.1733 44.1507 92.4115 42.7686C92.6498 41.1007 92.7451 41.1007 96.51 41.8155ZM104.707 42.578C104.23 43.1022 100.608 43.1499 100.608 42.6733C100.608 42.4351 101.609 42.2444 102.848 42.2444C104.04 42.2444 104.897 42.3874 104.707 42.578ZM111.093 50.5843C111.855 51.3468 114.095 54.921 116.097 58.4476C118.098 61.9741 120.195 65.4054 120.767 66.0249C121.339 66.6444 123.769 68.646 126.2 70.4569C131.442 74.3647 138.829 80.8936 141.307 83.753C143.356 86.0882 145.405 90.0436 145.405 91.664C145.405 93.9038 133.491 96.4772 125.437 95.953C119.957 95.5718 116.24 94.6663 111.808 92.5218C108.615 90.9968 104.421 87.8991 104.421 87.0413C104.421 86.2788 108.329 85.1351 112.856 84.6108C116.287 84.1819 118.813 84.1819 122.721 84.6108C129.345 85.278 133.539 86.4694 138.019 88.9476C141.831 90.9968 142.069 91.0921 142.069 90.3772C142.069 89.2812 137.685 85.2304 135.207 84.039C130.584 81.7515 126.915 81.1319 118.241 81.1319C109.377 81.1319 105.04 81.9897 100.227 84.7538C94.4608 88.0421 89.7904 93.9038 88.9326 98.9554C88.742 100.004 88.3608 100.862 88.0748 100.862C87.7889 100.862 86.0256 99.289 84.167 97.3827C78.8772 91.9499 75.9701 85.6116 75.4936 78.3679C75.16 73.4116 75.8748 69.3132 77.7334 65.3577C79.6397 61.3546 81.9272 58.8765 86.1209 56.2554C89.6475 54.0632 102.038 48.7733 105.374 48.0108C107.28 47.5819 108.853 48.2968 111.093 50.5843ZM174.237 77.796C174.19 79.8452 173.999 85.1827 173.761 89.5671L173.38 97.5733L165.04 104.674C160.465 108.63 156.605 111.775 156.509 111.68C156.462 111.584 156.89 109.916 157.558 107.962C158.225 106.008 158.701 103.769 158.654 103.006L158.511 101.576L157.701 103.244C156.652 105.294 153.364 109.344 151.124 111.203C149.122 112.871 146.74 114.539 140.401 118.59C134.301 122.545 129.536 126.358 123.531 132.124C118.194 137.223 118.098 137.223 116.287 133.697C114.762 130.694 114.143 125.738 114.762 121.497C115.048 119.448 115.239 117.732 115.191 117.637C115.096 117.589 113.857 118.494 112.475 119.638C110.807 121.02 109.854 121.544 109.758 121.163C109.663 120.782 110.235 117.78 111.045 114.396C111.808 111.012 112.808 105.866 113.237 103.006C113.714 100.099 114.143 97.621 114.238 97.478C114.333 97.2874 114.953 97.2874 115.572 97.3827C116.478 97.5733 117.193 98.4788 118.527 101.052C121.196 106.247 125.104 111.918 127.487 114.11C129.965 116.398 131.156 116.779 129.917 114.825C128.44 112.633 127.391 110.679 127.105 109.583C126.438 107.391 132.49 102.577 141.831 97.9069C145.691 95.953 146.549 95.7147 150.171 95.5241C155.318 95.2382 158.701 93.6655 162.609 89.7577C165.802 86.5647 168.9 80.8936 169.805 76.5093L170.377 73.6499L172.331 73.8405L174.237 74.0312V77.796ZM192.108 82.1804L194.73 83.0382L193.062 83.6577C189.106 85.1351 184.388 87.3749 184.436 87.7561C184.436 87.9944 186.104 88.614 188.153 89.1858C190.202 89.7101 193.49 91.0444 195.444 92.0452C199.209 94.0468 204.213 98.4311 203.165 98.8124C202.831 98.9554 200.353 98.8124 197.637 98.5265C194.92 98.1929 191.822 98.0976 190.726 98.2882L188.772 98.6218L191.251 101.291C196.064 106.533 198.304 111.108 198.304 115.73C198.304 116.922 198.161 117.112 197.494 116.779C194.301 115.397 189.916 114.205 187.581 114.11L184.817 113.967L184.007 117.065C182.958 121.306 181.624 123.689 178.288 127.216C175.953 129.694 168.995 135.174 168.137 135.174C168.042 135.174 168.471 133.411 169.09 131.314C169.662 129.169 170.187 126.453 170.187 125.214V123.022L169.138 124.69C162.609 135.269 156.89 141.083 149.265 144.944C147.026 146.04 146.74 146.087 147.026 145.325C147.931 143.037 149.694 137.366 149.694 136.747C149.694 136.366 147.597 137.986 145.072 140.416C140.401 144.848 133.396 149.805 128.773 152.044C125.914 153.426 125.914 153.522 127.963 148.756C129.25 145.754 129.488 144.229 128.773 144.229C127.296 144.229 115.287 155.809 113.714 158.669C113.19 159.622 112.618 160.432 112.475 160.432C111.808 160.432 107.376 151.044 106.804 148.47C106.47 146.993 106.28 144.372 106.422 142.608L106.613 139.463L104.564 141.465C103.42 142.608 101.895 144.324 101.18 145.373L99.8936 147.231L98.9881 145.134C97.6537 142.132 97.3678 134.841 98.4639 131.076C98.8928 129.551 99.7029 127.454 100.227 126.453C100.704 125.452 101.085 124.547 100.99 124.451C100.894 124.356 98.7022 125.309 96.1287 126.596L91.4108 128.931L91.6967 127.216C92.3162 123.403 94.4131 120.305 99.9412 114.777C104.183 110.583 105.136 109.44 104.278 109.44C103.087 109.44 97.4631 110.631 96.1287 111.155C95.3186 111.489 95.3186 111.441 96.0811 109.916C97.5108 107.152 101.371 103.864 105.612 101.767C107.852 100.671 109.806 99.8608 109.949 100.051C110.426 100.528 109.187 108.868 107.709 115.254C106.137 122.164 106.232 124.785 108.138 125.071C108.758 125.166 109.758 124.88 110.426 124.499L111.569 123.737V126.977C111.569 130.647 112.808 134.793 114.667 137.652C116.097 139.797 116.097 139.749 114.905 142.084C113.047 145.706 113.762 146.04 116.621 142.894C119.623 139.558 130.394 129.837 134.683 126.548C136.255 125.357 139.353 123.212 141.593 121.83C143.833 120.448 147.216 118.256 149.122 117.017C152.125 114.968 152.554 114.777 152.554 115.635C152.554 116.255 152.887 116.588 153.507 116.588C155.604 116.588 159.845 113.633 167.518 106.914C169.853 104.865 173.427 101.91 175.476 100.337C179.241 97.478 179.765 96.5726 177.573 96.5726C176.43 96.5726 176.43 96.5726 176.668 92.1405C177.097 84.3249 177.192 83.8007 178.908 82.8952C179.765 82.4663 180.957 81.9897 181.624 81.7515C183.721 81.1319 189.392 81.3702 192.108 82.1804ZM80.8311 124.308C83.5951 125.548 83.4045 124.785 93.0311 173.156C96.4623 190.598 96.8436 192.981 96.3194 194.268C95.9381 195.126 95.2233 195.841 94.4608 196.079C93.7936 196.269 76.4944 196.365 56.0498 196.317C22.5951 196.222 18.8303 196.126 18.3537 195.459C18.0201 195.03 17.3053 192.171 16.7811 189.121C15.7803 183.736 6.82092 144.133 3.77092 131.695C2.34123 125.833 2.34123 125.595 3.15138 124.69C4.0092 123.737 4.62873 123.737 41.8006 123.737C69.6795 123.737 79.9256 123.88 80.8311 124.308ZM203.165 142.084C205.262 144.705 207.883 148.613 207.692 148.804C206.93 149.614 197.827 138.367 197.827 136.604C197.827 136.08 200.496 138.796 203.165 142.084ZM190.059 145.182C191.775 147.66 194.396 151.282 195.826 153.188C197.255 155.094 198.304 156.81 198.113 156.953C197.732 157.382 193.109 152.855 190.679 149.709C188.63 147.041 184.96 140.512 184.96 139.511C184.96 138.367 186.723 140.321 190.059 145.182ZM170.187 162.862C171.95 168.105 173.808 171.869 177.24 177.207C179.718 181.019 180.099 181.401 181.481 181.401C183.912 181.401 189.821 182.687 193.824 184.022C197.827 185.404 199.638 186.5 197.112 186.023C196.35 185.833 192.251 185.499 188.058 185.213C183.864 184.927 177.764 184.498 174.476 184.26C171.235 184.022 168.471 183.879 168.423 183.974C168.328 184.069 168.614 184.88 168.995 185.833C169.901 188.073 169.901 191.551 168.947 193.553C167.756 196.079 165.659 196.794 160.226 196.555C153.507 196.269 152.125 195.364 146.263 187.691C144.976 186.071 143.642 184.737 143.213 184.737C142.784 184.737 140.878 185.88 139.019 187.31C137.161 188.692 135.207 190.074 134.683 190.36C133.634 190.884 123.96 191.17 123.96 190.646C123.96 190.503 124.722 188.93 125.628 187.167C129.869 179.113 136.351 174.205 143.88 173.442C148.741 172.918 145.691 171.202 140.401 171.488C138.162 171.583 136.303 172.012 134.778 172.775C130.108 175.062 124.818 181.019 121.53 187.691L119.957 190.932H116.24H112.522V189.121C112.522 184.117 117.193 173.347 120.91 169.677C122.101 168.533 124.722 166.77 126.724 165.817L130.346 164.006L136.351 164.054C141.736 164.054 142.689 164.197 146.215 165.483C153.126 168.057 159.416 172.584 163.944 178.255L166.469 181.401L170.091 181.448C172.14 181.496 174.285 181.591 174.952 181.639C176.906 181.83 176.906 181.496 174.905 178.875C169.853 172.203 166.66 163.53 166.66 156.333C166.66 150.376 167.375 149.614 168.137 154.666C168.471 156.858 169.376 160.527 170.187 162.862ZM179.098 155.285C180.099 157.191 182.434 160.861 184.293 163.482C186.151 166.151 187.629 168.391 187.533 168.486C187.438 168.581 186.485 168.105 185.437 167.39C183.197 165.912 180.766 162.767 178.765 158.764C177.478 156.143 176.382 151.854 177.001 151.854C177.144 151.854 178.097 153.379 179.098 155.285ZM222.799 173.919C224.324 175.682 225.468 177.255 225.325 177.398C224.801 177.922 221.894 175.73 218.748 172.489C215.889 169.487 210.694 162.386 210.694 161.528C210.742 161.051 218.844 169.391 222.799 173.919ZM204.737 175.396C207.215 178.589 209.789 181.877 210.456 182.687C212.029 184.641 211.695 184.641 209.122 182.878C206.691 181.21 204.642 179.018 202.736 176.158C201.068 173.585 198.304 168.676 198.304 168.248C198.304 167.533 200.448 169.916 204.737 175.396ZM113.19 175.444C110.855 180.209 109.663 184.594 109.663 188.311V190.932H106.565C103.611 190.932 103.468 190.884 103.468 189.741C103.468 188.168 105.374 182.973 106.994 180.257C108.281 178.065 114.19 171.393 114.858 171.393C115.048 171.393 114.286 173.204 113.19 175.444Z" fill="#030063"/>
<path d="M132.776 12.9835C131.966 14.0796 129.965 16.9866 128.249 19.4171C126.438 22.0859 123.007 26.0413 119.814 29.1866C114.429 34.4765 114.095 34.953 114.381 37.9077C114.667 41.2437 119.242 46.3429 121.482 45.914C123.483 45.5327 124.627 46.2952 126.057 48.964C128.154 52.8718 129.869 54.778 132.395 56.1601C142.212 61.4976 151.791 58.7812 156.652 49.2976C157.748 47.2007 157.987 46.0093 158.177 42.2445C158.32 38.9562 158.177 37.1452 157.605 35.5726C157.033 33.9523 157.033 33.3804 157.462 33.0945C157.891 32.7609 162.609 32.9515 165.135 33.3804C165.373 33.3804 165.659 33.1421 165.755 32.8085C165.898 32.4749 165.04 31.8077 163.658 31.1405C161.751 30.2827 160.655 30.0921 157.033 30.1874C148.169 30.4257 141.736 32.4749 131.347 38.432C122.864 43.2929 120.767 43.4359 118.146 39.528C116.43 36.907 116.907 35.8109 121.72 31.0929C126.581 26.3273 130.823 20.6562 133.062 15.8429C134.921 11.8398 134.778 10.2195 132.776 12.9835ZM154.365 36.5257C157.176 42.0062 153.65 52.157 147.979 54.8734C147.026 55.3023 146.215 55.5882 146.12 55.4929C145.977 55.3976 146.215 54.2538 146.597 52.9671C147.407 50.346 147.502 47.1054 146.835 46.057C146.454 45.4851 146.358 45.4374 146.358 46.0093C146.358 47.1054 144.881 48.4398 143.69 48.4398C141.593 48.4398 141.831 45.0562 144.071 43.4835L145.167 42.6734L143.976 41.7679C141.164 39.6234 137.018 40.4335 134.587 43.5788C133.444 45.1038 133.253 45.771 133.253 48.4398C133.253 50.1554 133.444 52.0616 133.634 52.7288C133.92 53.682 133.634 53.4913 132.062 51.7757C130.965 50.5843 129.536 48.7257 128.869 47.582C127.344 45.0562 127.153 45.2945 134.206 41.053C141.259 36.8593 148.408 34.0952 151.839 34.2859C153.03 34.3812 153.459 34.7624 154.365 36.5257Z" fill="#030063"/>
<path d="M114.524 20.1796C112.57 23.2296 111.093 26.5179 111.093 27.8523C111.093 31.1882 114.524 25.6124 116.526 18.9882C117.097 17.1773 116.049 17.7968 114.524 20.1796Z" fill="#030063"/>
<path d="M180.433 44.3413C177.907 45.4374 176.001 47.439 175.238 49.7741C174.285 52.6335 172.951 60.3062 173.332 60.8781C173.856 61.7835 174.762 61.2116 176.001 59.2577C178.431 55.4452 179.48 50.7749 178.24 49.5359C177.907 49.2023 178.622 48.2491 180.719 46.3429C183.721 43.6265 183.626 42.9116 180.433 44.3413Z" fill="#030063"/>
<path d="M118.718 49.9648C118.718 52.1093 124.151 58.6382 128.106 61.4023C131.823 63.928 138.304 65.596 144.357 65.596C148.789 65.596 152.22 64.214 154.174 61.6882C155.937 59.353 155.699 59.1624 153.269 61.021C150.457 63.2132 148.265 63.8804 143.928 63.8327C135.159 63.7851 128.678 60.4968 122.483 52.9194C119.719 49.4882 118.718 48.7257 118.718 49.9648Z" fill="#030063"/>
<path d="M105.803 61.1163C105.279 61.7835 105.517 62.1648 107.662 64.0234C110.14 66.1679 112.046 69.0749 112.046 70.6952C112.046 71.2671 112.189 71.3624 112.522 71.0288C113.142 70.4093 112.427 66.7398 111.331 64.6429C110.664 63.3085 107.566 60.3538 106.851 60.3538C106.613 60.3538 106.137 60.6874 105.803 61.1163Z" fill="#030063"/>
<path d="M41.0382 148.327C35.5577 150.71 33.7467 156.905 36.7014 163.053C39.1319 168.152 43.0397 170.916 47.71 170.916C52.1421 170.916 55.2397 168.629 56.3358 164.578C57.8132 159.05 54.1436 151.568 48.5678 148.804C45.7561 147.422 43.4686 147.279 41.0382 148.327Z" fill="#030063"/>
</svg>